<svg xmlns="http://www.w3.org/2000/svg" viewBox="0 0 20 20"><path d="M19 5h-3c.3-.4.5-.9.5-1.5C16.5 2.1 15.4 1 14 1s-2.6 1.1-3.1 1.8c-.4.4-.7.8-.9 1.2-.2-.4-.5-.8-.9-1.2C8.6 2.1 7.4 1 6 1 4.6 1 3.5 2.1 3.5 3.5c0 .6.2 1.1.5 1.5H1c-.3 0-.5.2-.5.5v3c0 .3.2.5.5.5h.5v9.5c0 .8.7 1.5 1.5 1.5h14c.8 0 1.5-.7 1.5-1.5V9h.5c.3 0 .5-.2.5-.5v-3c0-.3-.2-.5-.5-.5zm-7.4-1.6C12.4 2.5 13.3 2 14 2c.8 0 1.5.7 1.5 1.5S14.8 5 14 5h-3.4c.2-.4.5-1 1-1.6zM11.5 19h-3V6h3v13zm-7-15.5C4.5 2.7 5.2 2 6 2c.7 0 1.6.5 2.4 1.4.5.6.8 1.2 1 1.6H6c-.8 0-1.5-.7-1.5-1.5zM1.5 6h6v2h-6V6zm1 12.5V9h5v10H3c-.3 0-.5-.2-.5-.5zm15 0c0 .3-.2.5-.5.5h-4.5V9h5v9.5zm1-10.5h-6V6h6v2z"/></svg>