<svg xmlns="http://www.w3.org/2000/svg" viewBox="0 0 20 20"><path d="M10 19c-.1 0-.2 0-.2-.1-.1-.1-2.3-1.3-4.6-3.3-1.3-1.2-2.4-2.4-3.2-3.7C1 10.3.5 8.8.5 7.2.5 4.4 2.9 2 5.8 2c1 0 2 .4 2.9 1 .5.4 1 .9 1.3 1.4.3-.5.8-1 1.3-1.4.9-.7 2-1 2.9-1 2.9 0 5.3 2.4 5.3 5.3 0 1.5-.5 3.1-1.5 4.7-.8 1.2-1.8 2.5-3.2 3.7-2.3 2-4.5 3.3-4.6 3.3H10zM5.8 3C3.4 3 1.5 4.9 1.5 7.3c0 3 2.3 5.8 4.3 7.6 1.8 1.6 3.5 2.7 4.2 3.1.6-.4 2.4-1.5 4.2-3.1 2-1.8 4.3-4.5 4.3-7.6C18.5 5 16.6 3 14.2 3c-1.7 0-3.4 1.4-3.8 2.7 0 .2-.2.3-.4.3s-.4-.1-.5-.3C9.1 4.4 7.5 3 5.8 3z"/></svg>