<?xml version="1.0" encoding="utf-8"?>
<!-- Generator: Adobe Illustrator 24.1.3, SVG Export Plug-In . SVG Version: 6.00 Build 0)  -->
<svg version="1.1" id="Layer_1" xmlns="http://www.w3.org/2000/svg" xmlns:xlink="http://www.w3.org/1999/xlink" x="0px" y="0px"
	 viewBox="0 0 20 20" style="enable-background:new 0 0 20 20;" xml:space="preserve">
<path d="M15,7.5h-0.5V6c0-2.5-2-4.5-4.5-4.5S5.5,3.5,5.5,6v1.5H5C4.2,7.5,3.5,8.2,3.5,9v8c0,0.8,0.7,1.5,1.5,1.5h10
	c0.8,0,1.5-0.7,1.5-1.5V9C16.5,8.2,15.8,7.5,15,7.5z M6.5,6c0-1.9,1.6-3.5,3.5-3.5s3.5,1.6,3.5,3.5v1.5h-7V6z"/>
</svg>
