<?xml version="1.0" encoding="utf-8"?>
<!-- Generator: Adobe Illustrator 24.1.3, SVG Export Plug-In . SVG Version: 6.00 Build 0)  -->
<svg version="1.1" id="Layer_1" xmlns="http://www.w3.org/2000/svg" xmlns:xlink="http://www.w3.org/1999/xlink" x="0px" y="0px"
	 viewBox="0 0 20 20" style="enable-background:new 0 0 20 20;" xml:space="preserve">
<path d="M19,5h-3c0.3-0.4,0.5-0.9,0.5-1.5C16.5,2.1,15.4,1,14,1c-1.4,0-2.6,1.1-3.1,1.8C10.5,3.2,10.2,3.6,10,4
	C9.8,3.6,9.5,3.2,9.1,2.8C8.6,2.1,7.4,1,6,1C4.6,1,3.5,2.1,3.5,3.5C3.5,4.1,3.7,4.6,4,5H1C0.7,5,0.5,5.2,0.5,5.5v3
	C0.5,8.8,0.7,9,1,9h0.5v9.5C1.5,19.3,2.2,20,3,20h14c0.8,0,1.5-0.7,1.5-1.5V9H19c0.3,0,0.5-0.2,0.5-0.5v-3C19.5,5.2,19.3,5,19,5z
	 M11.6,3.4C12.4,2.5,13.3,2,14,2c0.8,0,1.5,0.7,1.5,1.5S14.8,5,14,5h-3.4C10.8,4.6,11.1,4,11.6,3.4z M11.5,19h-3V6h3V19z M4.5,3.5
	C4.5,2.7,5.2,2,6,2c0.7,0,1.6,0.5,2.4,1.4C8.9,4,9.2,4.6,9.4,5H6C5.2,5,4.5,4.3,4.5,3.5z M1.5,6h6v2h-6V6z M2.5,18.5V9h5v10H3
	C2.7,19,2.5,18.8,2.5,18.5z M17.5,18.5c0,0.3-0.2,0.5-0.5,0.5h-4.5V9h5V18.5z M18.5,8h-6V6h6V8z"/>
</svg>
